<svg xmlns="http://www.w3.org/2000/svg" viewBox="2504.448 1236.8 30.552 30.2"><defs><style>.a,.b,.c{fill:none;}.a,.d{stroke:#fff;}.b{stroke:#fff;}.b,.c{stroke-miterlimit:10;}.c{stroke:#fff;}.d{fill:#fff;stroke-width:0.4px;}.e{fill:#fff;}</style></defs><g transform="translate(1418 570.573)"><g transform="translate(1087 666.427)"><g transform="translate(0 14.224)"><g transform="translate(0 0)"><path class="a" d="M28.8.638c-.311-.756-2-.844-2.756-.489l-6.933,3.2L9.911.816A.472.472,0,0,0,9.555.86l-.667.533a.4.4,0,0,0,.044.667l5.911,3.289L5.6,9.615l2.978.044a12.488,12.488,0,0,0,4.933-.933L27.2,2.949C28,2.593,29.111,1.438,28.8.638Z" transform="translate(-2.222 0.052)"/><path class="a" d="M1.022,14.567a.408.408,0,0,0-.444.089l-.444.4a.43.43,0,0,0,0,.622L2,17.411l2.667-1.244-1.572-.69Z" transform="translate(0 -8.499)"/></g></g><g transform="translate(9.765)"><path class="b" d="M24.843,25.192a3.733,3.733,0,0,0-3.832-3.216,4.655,4.655,0,0,0-9.2-.526A3.32,3.32,0,0,0,8.74,24.934a1.862,1.862,0,0,0,.908,1.807" transform="translate(-8.739 -14.357)"/><path class="c" d="M33.537,33.743h.012" transform="translate(-19.036 -19.995)"/><path class="b" d="M27,19.165a2.393,2.393,0,0,1,1.554-.579,2.77,2.77,0,0,1,2.612,2.895,3.105,3.105,0,0,1-.355,1.451" transform="translate(-16.323 -14.661)"/><path class="d" d="M29.824,14.39a.3.3,0,0,1-.256.324h0a.3.3,0,0,1-.256-.324V12.854a.3.3,0,0,1,.256-.325h0a.3.3,0,0,1,.256.325Z" transform="translate(-17.282 -12.529)"/><path class="d" d="M37.423,23.047a.288.288,0,0,1-.292-.284h0a.289.289,0,0,1,.292-.284H38.81a.288.288,0,0,1,.292.284h0a.288.288,0,0,1-.292.284Z" transform="translate(-20.528 -16.031)"/><path class="d" d="M35.155,16.946a.26.26,0,0,1-.389.029h0a.331.331,0,0,1,.027-.43l.979-1.087a.259.259,0,0,1,.389-.029h0a.33.33,0,0,1-.026.432Z" transform="translate(-19.518 -13.523)"/><path class="d" d="M22.1,16.042a.33.33,0,0,1-.026-.43h0a.258.258,0,0,1,.389.028l.98,1.086a.331.331,0,0,1,.026.431h0a.259.259,0,0,1-.389-.03Z" transform="translate(-14.246 -13.587)"/></g></g><path class="e" d="M.491,0H29.509a.491.491,0,1,1,0,.981H.491A.491.491,0,0,1,.491,0Z" transform="translate(1087 695.445)"/></g></svg>