<svg xmlns="http://www.w3.org/2000/svg" viewBox="225.998 134 12.999 18.002"><defs><style>.a{fill:#fff;}</style></defs><g transform="translate(128.366 7943.158) rotate(180)"><path class="a" d="M-971.527,23185.02l-7.977-8.547a.411.411,0,0,1-.128-.314.418.418,0,0,1,.128-.32l7.977-8.549a.4.4,0,0,1,.308-.133.419.419,0,0,1,.442.447.406.406,0,0,1-.134.32l-7.29,7.832h11.566v.9h-11.474l7.2,7.732a.408.408,0,0,1,.134.32.419.419,0,0,1-.442.447A.4.4,0,0,1-971.527,23185.02Z" transform="translate(869 -15376)"/></g></svg>