<svg xmlns="http://www.w3.org/2000/svg" viewBox="2935 1237.425 30 30"><defs><style>.a{fill:#fff;}</style></defs><g transform="translate(2919.953 1181.329)"><path class="a" d="M565.869,602.784a.557.557,0,0,0-.557.557v1.694a.557.557,0,1,0,1.114,0v-1.694A.558.558,0,0,0,565.869,602.784Z" transform="translate(-528.823 -522.366)"/><path class="a" d="M201.487,602.784a.557.557,0,0,0-.557.557v1.694a.557.557,0,1,0,1.114,0v-1.694A.557.557,0,0,0,201.487,602.784Z" transform="translate(-178.64 -522.366)"/><path class="a" d="M565.869,697.07a.586.586,0,0,0-.557.611v.779a.56.56,0,1,0,1.114,0v-.779A.586.586,0,0,0,565.869,697.07Z" transform="translate(-528.823 -612.976)"/><path class="a" d="M201.487,697.07a.586.586,0,0,0-.557.611v.779a.559.559,0,1,0,1.114,0v-.779A.586.586,0,0,0,201.487,697.07Z" transform="translate(-178.64 -612.976)"/><path class="a" d="M44.49,77.786h-6.9l0-4.056q1.942-.017,3.88-.041a.558.558,0,0,0-.016-1.115c-.319,0-.64.006-.959.01v-7.6a7.137,7.137,0,0,0,1.751.607v2.248a.557.557,0,1,0,1.114,0V65.744c.067,0,.131.012.2.016h.031a.558.558,0,0,0,.031-1.114c-4.725-.262-6.005-4.493-6.017-6.958v-.006s0,0,0-.007V56.654a.558.558,0,0,0-.557-.558h0a.557.557,0,0,0-.557.558V57.7a7.471,7.471,0,0,1-2,5.23A6.27,6.27,0,0,1,29.8,64.635c-4.632-.047-6.348-4.083-6.389-6.85,0-.034,0-.069,0-.1,0-.014,0-.028,0-.042v-.987a.557.557,0,1,0-1.114,0V57.68s0,0,0,0,0,.011,0,.016v.154A7.845,7.845,0,0,1,20.09,63.1a5.825,5.825,0,0,1-4.461,1.551.551.551,0,0,0-.581.532.557.557,0,0,0,.532.582q.208.009.412.009a7.048,7.048,0,0,0,3.621-.932v7.718c-.65-.01-1.3-.016-1.952-.027a.557.557,0,0,0-.02,1.114c1.547.028,3.1.045,4.66.063v4.077H15.919a.558.558,0,0,0,0,1.115H44.49a.558.558,0,0,0,0-1.115ZM39.38,64.262V72.6q-.894.01-1.79.018L37.6,62.1A7.048,7.048,0,0,0,39.38,64.262Zm-2.9-2.163-.007,10.526c-.571,0-1.14.009-1.712.011V64.172c.173-.141.343-.291.5-.45A7.23,7.23,0,0,0,36.484,62.1ZM31.9,72.643V65.531A7.163,7.163,0,0,0,33.65,64.9v7.739Q32.775,72.643,31.9,72.643Zm-2-6.892c.3,0,.6-.016.884-.042v6.936c-.584,0-1.167,0-1.751,0V65.707c.246.024.5.04.759.043Zm-3.732,6.878V64.842a6.9,6.9,0,0,0,1.751.683v7.113Q27.045,72.635,26.169,72.629Zm-1.112-8.566a.153.153,0,0,0,0,.017v8.543c-.547,0-1.095-.006-1.641-.011V62A7.453,7.453,0,0,0,25.057,64.063Zm-4.331,8.512V64.08a.514.514,0,0,0-.006-.054c.046-.041.094-.078.139-.121a7.676,7.676,0,0,0,1.44-1.913V72.6C21.774,72.59,21.251,72.581,20.726,72.574Zm2.688,1.15q3.724.037,7.462.04,2.8,0,5.6-.022l0,4.044H23.414Z" transform="translate(0 0)"/></g></svg>