<svg xmlns="http://www.w3.org/2000/svg" viewBox="2130 3262 100 66.667"><defs><style>.a{fill:#de2910;}.b{fill:#ffde00;}</style></defs><g transform="translate(2130 3262)"><rect class="a" width="100" height="66.667"/><path class="b" d="M6.657-3l5.878,18.09L-2.853,3.91H16.168L.78,15.09Z" transform="translate(10.009 9.667)"/><path class="b" d="M3.17,0,5.129,6.03,0,2.3H6.34L1.211,6.03Z" transform="translate(31.72 2.359) rotate(23.036)"/><path class="b" d="M3.17,0,5.129,6.03,0,2.3H6.34L1.211,6.03Z" transform="matrix(0.696, 0.718, -0.718, 0.696, 40.185, 8.737)"/><path class="b" d="M3.17,0,5.129,6.03,0,2.3H6.34L1.211,6.03Z" transform="matrix(0.343, 0.939, -0.939, 0.343, 42.044, 19.212)"/><path class="b" d="M3.17,0,5.129,6.03,0,2.3H6.34L1.211,6.03Z" transform="translate(31.543 25.763) rotate(20.66)"/></g></svg>