<svg xmlns="http://www.w3.org/2000/svg" viewBox="346 838 297.329 40">
  <defs>
    <style>
      .cls-1 {
        fill: #fff;
      }
    </style>
  </defs>
  <g id="Group_2433" data-name="Group 2433" transform="translate(340.6 832.6)">
    <path id="Path_10" data-name="Path 10" class="cls-1" d="M20,40A20,20,0,0,0,20,0,19.677,19.677,0,0,0,4.87,7.047a5.475,5.475,0,0,1,2.073.933A4.717,4.717,0,0,1,8.6,9.845a10.977,10.977,0,0,1,4.041-.622c2.9.1,4.663.829,5.285,1.347a4.32,4.32,0,0,1,1.554,2.28,9.32,9.32,0,0,1,4.352-.622,6.373,6.373,0,0,1,4.145,1.347,4.107,4.107,0,0,1,1.554,3.005v8.6H26.528V17.513c0-1.14-.311-1.554-.725-1.762a3.651,3.651,0,0,0-2.383-.622c-3.212,0-3.731,1.347-3.731,1.347V26.528H16.166V15.13c0-.829-.1-1.554-.622-1.865a4.489,4.489,0,0,0-2.8-.725c-2.9-.207-3.42,1.244-3.42,1.244V27.876H5.492V13.368a2.58,2.58,0,0,0-1.554-2.694,3.266,3.266,0,0,0-1.347-.622A20.328,20.328,0,0,0,0,20,19.946,19.946,0,0,0,20,40" transform="translate(5.4 5.4)"/>
    <path id="Path_11" data-name="Path 11" class="cls-1" d="M64.356,30.948V18.158l-4.432,9.371H57.771l-4.559-9.371v12.79H50.3V11.7h2.913l5.572,12.03L64.356,11.7h2.913V30.948Z" transform="translate(14.357 4.076)"/>
    <path id="Path_12" data-name="Path 12" class="cls-1" d="M66.2,30.948V11.7H78.484v2.659H69.113v5.572h7.978v2.659H69.113v5.7h9.371v2.659Z" transform="translate(18.592 4.076)"/>
    <path id="Path_13" data-name="Path 13" class="cls-1" d="M86.231,14.359V30.948H83.319V14.359H78V11.7H91.55v2.659Z" transform="translate(21.735 4.076)"/>
    <path id="Path_14" data-name="Path 14" class="cls-1" d="M97.618,14.359H93.439v6.458h4.179c2.153,0,3.419-1.266,3.419-3.166a3.1,3.1,0,0,0-3.419-3.292m.127,8.991H93.313v7.6H90.4V11.7h7.345c3.672,0,6.205,2.406,6.205,5.825,0,3.546-2.533,5.825-6.205,5.825" transform="translate(25.037 4.076)"/>
    <path id="Path_15" data-name="Path 15" class="cls-1" d="M112.077,15.4a4.291,4.291,0,0,0-5.825,0c-1.14,1.14-1.14,3.039-1.14,5.445v1.646c0,2.026.127,3.8,1.14,4.812a4.291,4.291,0,0,0,5.825,0c1.14-1.14,1.14-2.913,1.14-6.205,0-2.786,0-4.559-1.14-5.7M116.13,21.6c0,3.166,0,5.572-1.9,7.471a6.589,6.589,0,0,1-5.065,2.026,7.294,7.294,0,0,1-5.065-2.026c-1.9-1.9-1.9-4.432-1.9-7.345V20.464c0-3.166.253-5.192,1.9-6.838a7.345,7.345,0,0,1,10.131,0c1.52,1.52,1.9,3.672,1.9,6.332Z" transform="translate(28.18 4.049)"/>
    <path id="Path_16" data-name="Path 16" class="cls-1" d="M118.313,14.359V30.948H115.4V11.7h11.9v2.659Z" transform="translate(31.696 4.076)"/>
    <path id="Path_17" data-name="Path 17" class="cls-1" d="M150.737,30.948V14.359h-7.725V30.948H140.1V11.7h13.55V30.948Z" transform="translate(38.275 4.076)"/>
    <path id="Path_18" data-name="Path 18" class="cls-1" d="M160.718,14.359h-4.179v6.458h4.179c2.153,0,3.419-1.266,3.419-3.166a3.159,3.159,0,0,0-3.419-3.292m.127,8.991h-4.432v7.6H153.5V11.7h7.345c3.672,0,6.205,2.406,6.205,5.825,0,3.546-2.533,5.825-6.205,5.825" transform="translate(41.844 4.076)"/>
    <path id="Path_19" data-name="Path 19" class="cls-1" d="M175.577,15.4a4.291,4.291,0,0,0-5.825,0c-1.14,1.14-1.14,3.039-1.14,5.445v1.646c0,2.026.127,3.8,1.14,4.812a4.291,4.291,0,0,0,5.825,0c1.14-1.14,1.14-2.913,1.14-6.205,0-2.786-.127-4.559-1.14-5.7M179.63,21.6c0,3.166,0,5.572-1.9,7.471a6.589,6.589,0,0,1-5.065,2.026,7.294,7.294,0,0,1-5.065-2.026c-1.9-1.9-1.9-4.432-1.9-7.345V20.464c0-3.166.253-5.192,1.9-6.838a7.345,7.345,0,0,1,10.131,0c1.52,1.52,1.9,3.672,1.9,6.332Z" transform="translate(45.093 4.049)"/>
    <path id="Path_20" data-name="Path 20" class="cls-1" d="M185.7,14.359V30.948h-2.913V14.359H177.6V11.7h13.423v2.659Z" transform="translate(48.263 4.076)"/>
    <path id="Path_21" data-name="Path 21" class="cls-1" d="M197.218,14.359h-4.179v6.458h4.179c2.153,0,3.419-1.266,3.419-3.166a3.159,3.159,0,0,0-3.419-3.292m.127,8.991h-4.432v7.6H190V11.7h7.345c3.672,0,6.205,2.406,6.205,5.825,0,3.546-2.533,5.825-6.205,5.825" transform="translate(51.565 4.076)"/>
    <path id="Path_22" data-name="Path 22" class="cls-1" d="M207.958,16.132l-3.039,8.485h5.952Zm5.065,14.816-1.393-3.8h-7.6l-1.393,3.8H199.6L206.692,11.7H209.1l6.965,19.248Z" transform="translate(54.122 4.076)"/>
    <path id="Path_23" data-name="Path 23" class="cls-1" d="M225.264,30.948V22.591h-7.851v8.358H214.5V11.7h2.913v8.231h7.851V11.7h2.913V30.948Z" transform="translate(58.091 4.076)"/>
    <path id="Path_24" data-name="Path 24" class="cls-1" d="M234.365,31.1a7.294,7.294,0,0,1-5.065-2.026c-1.9-1.9-1.9-4.052-1.9-7.725s0-5.825,1.9-7.725a7.072,7.072,0,0,1,5.065-2.026c3.546,0,6.205,2.026,6.838,5.952h-2.913a3.953,3.953,0,0,0-3.926-3.292,3.536,3.536,0,0,0-2.786,1.14c-.886,1.013-1.14,2.153-1.14,5.952,0,3.926.253,4.939,1.14,5.952a3.536,3.536,0,0,0,2.786,1.14,3.953,3.953,0,0,0,3.926-3.292H241.2c-.633,3.926-3.293,5.952-6.838,5.952" transform="translate(61.526 4.049)"/>
    <path id="Path_25" data-name="Path 25" class="cls-1" d="M137.57,11.7v1.9l-8.358,11.144V11.7H126.3V30.948h2.913V29.176l8.358-11.144V30.948h2.913V11.7Z" transform="translate(34.599 4.076)"/>
  </g>
</svg>
