<svg xmlns="http://www.w3.org/2000/svg" xmlns:xlink="http://www.w3.org/1999/xlink" viewBox="2077 642 36 36"><defs><style>.a{fill:#fff;}.b{filter:url(#c);}.c{filter:url(#a);}</style><filter id="a" x="2077" y="650.621" width="35.276" height="18.9" filterUnits="userSpaceOnUse"><feOffset dy="3" input="SourceAlpha"/><feGaussianBlur stdDeviation="3" result="b"/><feFlood/><feComposite operator="in" in2="b"/><feComposite in="SourceGraphic"/></filter><filter id="c" x="2086.141" y="642" width="26.86" height="36" filterUnits="userSpaceOnUse"><feOffset dy="3" input="SourceAlpha"/><feGaussianBlur stdDeviation="3" result="d"/><feFlood/><feComposite operator="in" in2="d"/><feComposite in="SourceGraphic"/></filter></defs><g transform="translate(1993.367 8457.157) rotate(180)"><g class="c" transform="matrix(-1, 0, 0, -1, 1993.37, 8457.16)"><rect class="a" width="17.276" height="0.9" transform="translate(2086 656.62)"/></g><g transform="translate(-101.774 7791.157) rotate(90)"><g class="b" transform="matrix(0, 1, -1, 0, 666, -2095.14)"><path class="a" d="M17.552,0a.409.409,0,0,0-.316.134L9,7.8.766.134A.413.413,0,0,0,.45,0,.422.422,0,0,0,0,.443.4.4,0,0,0,.134.754l8.55,7.974a.442.442,0,0,0,.63,0L17.864.754A.4.4,0,0,0,18,.443.419.419,0,0,0,17.552,0Z" transform="translate(2095.14 666) rotate(-90)"/></g></g></g></svg>