<svg xmlns="http://www.w3.org/2000/svg" viewBox="3127 1237 30 30"><defs><style>.a{opacity:1;}.b{fill:#fff;}</style></defs><g class="a" transform="translate(3127 1237)"><path class="b" d="M150.2,126.512a.639.639,0,0,0,.638.638h1.98a.639.639,0,0,0,.638-.638v-2.974a.639.639,0,0,0-.638-.638h-1.98a.639.639,0,0,0-.638.638Zm1.277-.646v-1.69h.7v1.69Z" transform="translate(-139.305 -113.986)"/><path class="b" d="M6.579,81.9H.638A.639.639,0,0,0,0,82.538v9.9a.638.638,0,1,0,1.277,0V83.184h5.3a.642.642,0,0,0,0-1.284Z" transform="translate(0 -75.959)"/><path class="b" d="M330.319,286.7h-1.98a.639.639,0,0,0-.638.638v2.974a.639.639,0,0,0,.638.638h1.98a.639.639,0,0,0,.638-.638v-2.974A.639.639,0,0,0,330.319,286.7Zm-.638,1.284v1.69h-.7v-1.69Z" transform="translate(-303.931 -265.905)"/><path class="b" d="M2.618,245.8c-1.1,0-1.871,1.117-2.3,3.315A20.109,20.109,0,0,0,0,252.379a2.63,2.63,0,0,0,1.98,2.539v2.408a.638.638,0,0,0,1.277,0v-2.408a2.63,2.63,0,0,0,1.98-2.539,20.23,20.23,0,0,0-.319-3.271C4.49,246.91,3.714,245.8,2.618,245.8Zm1.342,6.579a1.342,1.342,0,0,1-2.684,0c0-2.524.7-5.3,1.342-5.3S3.96,249.855,3.96,252.379Z" transform="translate(0 -227.971)"/><path class="b" d="M43.618,204.8h-1.98a.639.639,0,0,0-.638.638v.994a.638.638,0,1,0,1.277,0v-.348h.7v2.328a.638.638,0,0,0,1.277,0v-2.974a.644.644,0,0,0-.638-.638Z" transform="translate(-38.026 -189.945)"/><path class="b" d="M330.319,122.9h-1.98a.639.639,0,0,0-.638.638v2.974a.639.639,0,0,0,.638.638h1.98a.639.639,0,0,0,.638-.638v-2.974A.635.635,0,0,0,330.319,122.9Zm-.638,1.277v1.69h-.7v-1.69Z" transform="translate(-303.931 -113.986)"/><path class="b" d="M43.618,122.9h-1.98a.639.639,0,0,0-.638.638v2.974a.639.639,0,0,0,.638.638h1.98a.639.639,0,0,0,.638-.638v-2.974a.644.644,0,0,0-.638-.638Zm-1.342,2.967v-1.69h.7v1.69Z" transform="translate(-38.026 -113.986)"/><path class="b" d="M218.5,126.512a.639.639,0,0,0,.638.638h1.98a.639.639,0,0,0,.638-.638v-2.974a.639.639,0,0,0-.638-.638h-1.98a.639.639,0,0,0-.638.638Zm1.98-2.336v1.69h-.7v-1.69Z" transform="translate(-202.651 -113.986)"/><path class="b" d="M219.138,45.25h1.98a.639.639,0,0,0,.638-.638V41.638a.639.639,0,0,0-.638-.638h-1.98a.639.639,0,0,0-.638.638v2.974A.639.639,0,0,0,219.138,45.25Zm1.342-2.974v1.69h-.7v-1.69Z" transform="translate(-202.651 -38.026)"/><path class="b" d="M218.5,208.412a.639.639,0,0,0,.638.638h1.98a.639.639,0,0,0,.638-.638v-2.974a.639.639,0,0,0-.638-.638h-1.98a.639.639,0,0,0-.638.638Zm1.98-2.328v1.69h-.7v-1.69Z" transform="translate(-202.651 -189.945)"/><path class="b" d="M150.838,45.25h1.98a.639.639,0,0,0,.638-.638V41.638a.639.639,0,0,0-.638-.638h-1.98a.639.639,0,0,0-.638.638v2.974A.639.639,0,0,0,150.838,45.25Zm.638-1.284v-1.69h.7v1.69Z" transform="translate(-139.305 -38.026)"/><path class="b" d="M198.189,349.9h0a.648.648,0,0,0-.007.907l.007.007a.669.669,0,0,0,.45.181.656.656,0,0,0,.45-.181l.007-.007a.648.648,0,0,0-.007-.907A.653.653,0,0,0,198.189,349.9Z" transform="translate(-183.638 -324.358)"/><path class="b" d="M150.2,208.412a.639.639,0,0,0,.638.638h1.98a.639.639,0,0,0,.638-.638v-2.974a.639.639,0,0,0-.638-.638h-1.98a.639.639,0,0,0-.638.638Zm1.277-.638v-1.69h.7v1.69Z" transform="translate(-139.305 -189.945)"/><path class="b" d="M146.145,298.7h-8.907a.638.638,0,1,0,0,1.277h1.342v6.412a.638.638,0,0,0,1.277,0v-6.412h3.67v6.412a.638.638,0,0,0,1.277,0v-6.412h1.342a.638.638,0,1,0,0-1.277Z" transform="translate(-126.692 -277.034)"/><path class="b" d="M330.319,204.8h-1.98a.639.639,0,0,0-.638.638v2.974a.639.639,0,0,0,.638.638h1.98a.639.639,0,0,0,.638-.638v-2.974A.639.639,0,0,0,330.319,204.8Zm-.638,1.284v1.69h-.7v-1.69Z" transform="translate(-303.931 -189.945)"/><path class="b" d="M122.806,0H109.938a.639.639,0,0,0-.638.638V29.354a.638.638,0,1,0,1.277,0V1.284h11.591V29.362a.638.638,0,1,0,1.277,0V.638a.608.608,0,0,0-.189-.45A.608.608,0,0,0,122.806,0Z" transform="translate(-101.372)"/><path class="b" d="M320.679,81.9h-5.941a.638.638,0,0,0,0,1.277h5.3V104.24h0v1.074a.638.638,0,1,0,1.277,0V82.538A.644.644,0,0,0,320.679,81.9Z" transform="translate(-291.317 -75.959)"/></g></svg>