<svg xmlns="http://www.w3.org/2000/svg" viewBox="2710 1237 30 30"><defs><style>.a{fill:#fff;}</style></defs><g transform="translate(2710 696.549)"><g transform="translate(0 540.451)"><g transform="translate(0 0)"><path class="a" d="M134.083,876.448a1.869,1.869,0,1,0,1.862,1.869A1.847,1.847,0,0,0,134.083,876.448Zm0,2.515a.639.639,0,1,1,.633-.639A.622.622,0,0,1,134.083,878.963Z" transform="translate(-124.094 -855.788)"/><path class="a" d="M296.883,876.448a1.869,1.869,0,1,0,1.862,1.869A1.847,1.847,0,0,0,296.883,876.448Zm0,2.515a.639.639,0,1,1,.633-.639A.622.622,0,0,1,296.883,878.963Z" transform="translate(-276.888 -855.788)"/><path class="a" d="M107.746,632.251H93.99a2.5,2.5,0,0,0-2.465,2.515v16.27A2.5,2.5,0,0,0,93.99,653.5h.817l-1.3,2.177a.614.614,0,0,0,.215.842.59.59,0,0,0,.313.086.61.61,0,0,0,.529-.3l1.672-2.8h9.306l1.672,2.8a.624.624,0,0,0,.529.3.651.651,0,0,0,.313-.086.619.619,0,0,0,.215-.842l-1.3-2.177h.768a2.492,2.492,0,0,0,2.514-2.466V634.772A2.519,2.519,0,0,0,107.746,632.251Zm-1.322,1.23-1.3,8.184H96.627l-1.272-8.184Zm-1.5,9.414-.2,1.273h-7.7l-.2-1.273Zm4.106,8.147a1.279,1.279,0,0,1-1.285,1.236H93.99a1.269,1.269,0,0,1-1.235-1.236v-16.27a1.275,1.275,0,0,1,1.235-1.285h.123l1.77,11.394a.62.62,0,0,0,.609.523h8.753a.62.62,0,0,0,.609-.516l1.819-11.4h.074a1.288,1.288,0,0,1,1.285,1.285Z" transform="translate(-85.899 -626.606)"/><path class="a" d="M29.941,554.169a15.06,15.06,0,0,0-4.819-9.764,14.937,14.937,0,0,0-20.247,0,15,15,0,0,0-1.77,20.205.614.614,0,1,0,.971-.75,13.769,13.769,0,0,1,20.21-18.551,13.709,13.709,0,0,1,1.629,18.551.614.614,0,1,0,.977.744A14.878,14.878,0,0,0,29.941,554.169Z" transform="translate(0 -540.451)"/></g></g></g></svg>