<svg xmlns="http://www.w3.org/2000/svg" viewBox="2294 1237.001 30 30"><defs><style>.a{fill:#fff;}.b{fill:#fff;}</style></defs><g transform="translate(1200 561.982)"><g transform="translate(402 -143)"><g transform="translate(692.001 818.018)"><g transform="translate(11.35 5.63)"><path class="a" d="M134.075,876.448a1.87,1.87,0,1,0,1.854,1.87A1.844,1.844,0,0,0,134.075,876.448Zm0,2.516a.64.64,0,1,1,.63-.64A.621.621,0,0,1,134.075,878.964Z" transform="translate(-129.732 -861.424)"/><path class="a" d="M296.875,876.448a1.87,1.87,0,1,0,1.854,1.87A1.844,1.844,0,0,0,296.875,876.448Zm0,2.516a.64.64,0,1,1,.63-.64A.621.621,0,0,1,296.875,878.964Z" transform="translate(-282.571 -861.424)"/><path class="a" d="M107.672,632.251H93.979a2.491,2.491,0,0,0-2.454,2.516v16.279a2.492,2.492,0,0,0,2.454,2.467h.814L93.5,655.692a.616.616,0,0,0,.214.843.584.584,0,0,0,.312.086.607.607,0,0,0,.526-.3l1.664-2.805h9.264l1.664,2.805a.62.62,0,0,0,.526.3.645.645,0,0,0,.312-.086.621.621,0,0,0,.214-.843l-1.291-2.178h.765a2.487,2.487,0,0,0,2.5-2.467V634.774A2.514,2.514,0,0,0,107.672,632.251Zm-1.316,1.231-1.3,8.189H96.6l-1.267-8.189Zm-1.493,9.419-.2,1.273H97l-.2-1.273Zm4.087,8.152a1.276,1.276,0,0,1-1.279,1.237H93.979a1.266,1.266,0,0,1-1.23-1.237V634.774a1.273,1.273,0,0,1,1.23-1.286H94.1l1.762,11.4a.618.618,0,0,0,.606.523h8.713a.618.618,0,0,0,.606-.517l1.811-11.407h.073a1.286,1.286,0,0,1,1.279,1.286Z" transform="translate(-91.525 -632.251)"/></g><path class="b" d="M27.165.03.875,0a.769.769,0,1,0,0,1.523l26.289.03c.912,0,1.09-.371,1.09-.792S28.076.03,27.165.03Z" transform="translate(1.553 1.746) rotate(90)"/><path class="b" d="M15.963,0,.812.021a.767.767,0,1,0,0,1.531L15.961,1.53a.891.891,0,0,0,.973-.767A.885.885,0,0,0,15.963,0Z" transform="translate(0.103 1.771) rotate(-6)"/></g></g><path class="b" d="M1.014,1H9.128c.56,0,.56,1,0,1H1.014A1.007,1.007,0,0,1,0,1C0,.448.454,1,1.014,1Z" transform="translate(1094 699)"/></g></svg>